<svg width="76" height="84" viewBox="0 0 76 84" fill="none" xmlns="http://www.w3.org/2000/svg">
    <path
        d="M54.6519 50.333C66.1547 50.333 75.4796 59.6604 75.4796 71.1663V79.4997C75.4796 81.8009 73.6146 83.6664 71.314 83.6664C69.0135 83.6664 67.1485 81.8009 67.1485 79.4997V71.1663C67.1485 64.2628 61.5536 58.6663 54.6519 58.6663H21.3277C14.426 58.6663 8.83106 64.2628 8.83106 71.1663V79.4997C8.83106 81.8009 6.96609 83.6664 4.66553 83.6664C2.36497 83.6664 0.5 81.8009 0.5 79.4997V71.1663C0.5 59.6604 9.82486 50.333 21.3277 50.333H54.6519ZM37.9898 0.333008C49.4926 0.333008 58.8175 9.66041 58.8175 21.1663C58.8175 32.6723 49.4926 41.9997 37.9898 41.9997C26.487 41.9997 17.1621 32.6723 17.1621 21.1663C17.1621 9.66041 26.487 0.333008 37.9898 0.333008ZM37.9898 8.66634C31.0881 8.66634 25.4932 14.2628 25.4932 21.1663C25.4932 28.0699 31.0881 33.6663 37.9898 33.6663C44.8915 33.6663 50.4864 28.0699 50.4864 21.1663C50.4864 14.2628 44.8915 8.66634 37.9898 8.66634Z"
        fill="#9BB8D3" />
</svg>